# xmcd CD database file
#
# Track frame offsets:
#	150
#	37800
#	49420
#	85584
#	110087
#	137857
#	169341
#	222487
#	258282
#	317807
#
# Disc length: 4460 seconds
#
# Revision: 0
# Processed by: cddbd v1.5.2PL0 Copyright (c) Steve Scherf et al.
# Submitted via: CDex 1.51
#
DISCID=90116a0a
DTITLE=Jazz Crossover Classic - Sampler
DYEAR=2000
DGENRE=Jazz
TTITLE0=Enchanted forest
TTITLE1=feeling free
TTITLE2=hungarian pictures
TTITLE3=tangangogo
TTITLE4=das buch für violonchello solo Fortissimo
TTITLE5=das buch für violonchello solo pianissimo
TTITLE6=Der lange fluss ohne wiederkehr
TTITLE7=my favorite things
TTITLE8=mister pc
TTITLE9=impressions
EXTD=YEAR: 2000
EXTT0=
EXTT1=
EXTT2=
EXTT3=
EXTT4=
EXTT5=
EXTT6=
EXTT7=
EXTT8=
EXTT9=
PLAYORDER=
